#define splash_screen_width 128
#define splash_screen_height 64
static unsigned char splash_screen_bits[] = {
   0x00, 0x00, 0x00, 0x00, 0x00, 0x00, 0x00, 0x00, 0x00, 0x00, 0x00, 0x00, 0x00, 0x00, 0x00, 0x00, 
   0x00, 0x00, 0x00, 0x00, 0x00, 0x00, 0x00, 0x00, 0x00, 0x00, 0x00, 0x00, 0x00, 0x00, 0x00, 0x00, 
   0x00, 0x00, 0x00, 0x00, 0x00, 0x00, 0x00, 0x00, 0x00, 0x00, 0x00, 0x00, 0x00, 0x00, 0x00, 0x00,
   0x00, 0x00, 0x00, 0x00, 0x00, 0x00, 0x00, 0x00, 0x00, 0x00, 0x00, 0x00, 0x00, 0x00, 0x00, 0x00, 
   0x00, 0x00, 0x00, 0x00, 0x00, 0x00, 0x00, 0x00, 0x00, 0x00, 0x00, 0x00, 0x80, 0x00, 0x00, 0x00,
   0x00, 0x00, 0x00, 0x00, 0x00, 0x00, 0x00, 0x00, 0x00, 0x00, 0x00, 0x00, 0xc0, 0x00, 0x00, 0x00,
   0x00, 0x00, 0x00, 0x00, 0x00, 0x00, 0x00, 0x00, 0x00, 0x00, 0x00, 0x00, 0x40, 0x01, 0x00, 0x00,
   0x00, 0x00, 0x00, 0x00, 0x00, 0x00, 0x00, 0x00, 0x00, 0x00, 0x00, 0x00, 0xa0, 0x03, 0x00, 0x00,
   0x00, 0x00, 0x00, 0x00, 0x00, 0x00, 0x00, 0x00, 0x00, 0x00, 0x00, 0x00, 0xe0, 0x02, 0x00, 0x00,
   0x00, 0x00, 0x00, 0x00, 0x00, 0x00, 0x00, 0x00, 0x00, 0x00, 0x00, 0x00, 0xd0, 0x07, 0x00, 0x00,
   0x00, 0x00, 0x00, 0x00, 0x00, 0x00, 0x00, 0x00, 0x00, 0x00, 0x00, 0x00, 0xf0, 0x05, 0x00, 0x00,
   0x00, 0x00, 0x7f, 0x03, 0x0c, 0x0e, 0x1c, 0xe0, 0xf9, 0xe1, 0x03, 0x00, 0xe8, 0x0f, 0x00, 0x00,
   0x00, 0x00, 0x3f, 0x03, 0x0e, 0x0f, 0x1e, 0xb0, 0xf9, 0xe3, 0x07, 0x00, 0xf8, 0x0b, 0x00, 0x00,
   0x00, 0x00, 0x30, 0x03, 0x0e, 0x0f, 0x1e, 0x30, 0x18, 0x67, 0x06, 0x00, 0xf4, 0x1f, 0x00, 0x00, 
   0x00, 0x00, 0x18, 0x03, 0x0b, 0x1b, 0x32, 0x70, 0x18, 0x66, 0x06, 0x00, 0xfc, 0x17, 0x00, 0x00,
   0x00, 0x00, 0x0c, 0x83, 0x89, 0x19, 0x33, 0xe0, 0x18, 0xe6, 0x07, 0x00,
   0x22, 0x38, 0x00, 0x00, 0x00, 0x00, 0x0e, 0x83, 0x8d, 0x1f, 0x3f, 0xc0,
   0x19, 0xe6, 0x03, 0x00, 0xa6, 0x28, 0x00, 0x00, 0x00, 0x00, 0x06, 0xc3,
   0xbf, 0x3f, 0x7f, 0x00, 0x1b, 0x67, 0x03, 0x00, 0x85, 0x5d, 0x00, 0x00,
   0x00, 0x00, 0x07, 0x07, 0xdc, 0xb0, 0x61, 0x90, 0xb9, 0x63, 0x06, 0x00,
   0x87, 0x5c, 0x00, 0x00, 0x00, 0x00, 0x7f, 0x3f, 0xc8, 0xf0, 0x61, 0xf0,
   0xf9, 0x61, 0x0c, 0x80, 0x26, 0xb8, 0x00, 0x00, 0x00, 0x00, 0x00, 0x00,
   0x00, 0x00, 0x00, 0x00, 0x00, 0x00, 0x00, 0x80, 0x06, 0xb8, 0x00, 0x00,
   0x00, 0x00, 0x00, 0x00, 0x00, 0x00, 0x00, 0x00, 0x00, 0x00, 0x00, 0x40,
   0x0f, 0x78, 0x01, 0x00, 0x00, 0x00, 0x00, 0x00, 0x00, 0x00, 0x00, 0x00,
   0x00, 0x00, 0x00, 0x40, 0x1f, 0x7c, 0x01, 0x00, 0x00, 0x00, 0x00, 0x00,
   0x00, 0x00, 0x00, 0x00, 0x00, 0x00, 0x00, 0xa0, 0x3f, 0xfe, 0x02, 0x00,
   0x00, 0x00, 0x00, 0x00, 0x00, 0x00, 0x00, 0x00, 0x00, 0x00, 0x00, 0xa0,
   0x3f, 0xff, 0x02, 0x00, 0x00, 0x00, 0x00, 0x00, 0x00, 0x00, 0x00, 0x00,
   0x00, 0x00, 0x00, 0xd0, 0x7f, 0xff, 0x05, 0x00, 0x00, 0x00, 0x00, 0x00,
   0x00, 0x00, 0x00, 0x00, 0x00, 0x00, 0x00, 0xd0, 0x3f, 0xff, 0x05, 0x00,
   0x00, 0x00, 0x00, 0x1f, 0x60, 0x00, 0x00, 0x00, 0x00, 0x00, 0x00, 0xe8,
   0x1f, 0xff, 0x0b, 0x00, 0x00, 0x00, 0x00, 0x1b, 0x70, 0x00, 0x00, 0x00,
   0x00, 0x00, 0x00, 0xe8, 0x0c, 0x8c, 0x0f, 0x00, 0x00, 0x00, 0xe3, 0x31,
   0x78, 0x78, 0x00, 0x00, 0x00, 0x00, 0x00, 0xf4, 0xcc, 0xac, 0x17, 0x00,
   0x00, 0x00, 0xb3, 0x31, 0x60, 0xc8, 0x00, 0x00, 0x00, 0x00, 0x00, 0x74,
   0x0c, 0x8c, 0x17, 0x00, 0x00, 0x00, 0xb3, 0x31, 0x60, 0xc0, 0x00, 0x00,
   0x00, 0x00, 0x00, 0x68, 0x08, 0x2e, 0x0b, 0x00, 0x00, 0x00, 0x96, 0x31,
   0x60, 0xf8, 0x00, 0x00, 0x00, 0x00, 0x00, 0xe8, 0x0f, 0xec, 0x0b, 0x00,
   0x00, 0x00, 0x9e, 0x31, 0x60, 0xcc, 0x00, 0x00, 0x00, 0x00, 0x00, 0xd0,
   0x8f, 0xfc, 0x05, 0x00, 0x00, 0x00, 0x1e, 0x9b, 0x61, 0xcc, 0x00, 0x00,
   0x00, 0x00, 0x00, 0xd0, 0x0f, 0xfc, 0x05, 0x00, 0x00, 0x00, 0x0c, 0x9f,
   0x61, 0xfc, 0x00, 0x00, 0x00, 0x00, 0x00, 0xa0, 0x0f, 0xff, 0x02, 0x00,
   0x00, 0x00, 0x00, 0x00, 0x00, 0x00, 0x00, 0x00, 0x00, 0x00, 0x00, 0xa0,
   0x1f, 0xff, 0x02, 0x00, 0x00, 0x00, 0x00, 0x00, 0x00, 0x00, 0x00, 0x00,
   0x00, 0x00, 0x00, 0xc0, 0x7f, 0x7f, 0x01, 0x00, 0x00, 0x00, 0x00, 0x00,
   0x00, 0x00, 0x00, 0x00, 0x00, 0x00, 0x00, 0x40, 0x7f, 0x7f, 0x01, 0x00,
   0x00, 0x00, 0x00, 0x00, 0x00, 0x00, 0x00, 0x00, 0x00, 0x00, 0x00, 0x80,
   0x3f, 0xbf, 0x00, 0x00, 0x00, 0x00, 0x00, 0x00, 0x00, 0x00, 0x00, 0x00,
   0x00, 0x00, 0x00, 0x80, 0x1e, 0xbe, 0x00, 0x00, 0x00, 0x00, 0x00, 0x00,
   0x00, 0x00, 0x00, 0x00, 0x00, 0x00, 0x00, 0x00, 0x4f, 0x5c, 0x00, 0x00,
   0x00, 0x00, 0x02, 0x00, 0x00, 0x00, 0x00, 0x00, 0x00, 0x00, 0x00, 0x00,
   0x6d, 0x59, 0x00, 0x00, 0x00, 0x00, 0x02, 0x00, 0xf8, 0x19, 0x60, 0xfe,
   0x7c, 0x0e, 0x07, 0x00, 0xfe, 0x2f, 0x00, 0x00, 0x00, 0x00, 0x02, 0x00,
   0xc0, 0x19, 0x70, 0x38, 0x4e, 0x0e, 0x07, 0x00, 0x1a, 0x2e, 0x00, 0x00,
   0x00, 0x00, 0x3e, 0x73, 0xc0, 0x18, 0x78, 0x18, 0x06, 0x9e, 0x07, 0x00,
   0x7c, 0x17, 0x00, 0x00, 0x00, 0x00, 0x76, 0x33, 0x60, 0x18, 0x68, 0x18,
   0x06, 0x9e, 0x07, 0x00, 0x74, 0x17, 0x00, 0x00, 0x00, 0x00, 0x62, 0x33,
   0x60, 0x18, 0x6c, 0x18, 0x06, 0x96, 0x06, 0x00, 0x7c, 0x0b, 0x00, 0x00,
   0x00, 0x00, 0x62, 0x1e, 0x30, 0x18, 0xee, 0x18, 0x06, 0xf6, 0x06, 0x00,
   0xe8, 0x0b, 0x00, 0x00, 0x00, 0x00, 0x62, 0x1e, 0x18, 0x18, 0xfe, 0x18,
   0x06, 0xf6, 0x06, 0x00, 0xf8, 0x05, 0x00, 0x00, 0x00, 0x00, 0x76, 0x1c,
   0xf8, 0xf9, 0x60, 0x18, 0x7e, 0x66, 0x06, 0x00, 0xd0, 0x05, 0x00, 0x00,
   0x00, 0x00, 0x3a, 0x0c, 0xf8, 0xf9, 0x61, 0x18, 0x7c, 0x66, 0x06, 0x00,
   0xd0, 0x02, 0x00, 0x00, 0x00, 0x00, 0x00, 0x0c, 0x00, 0x00, 0x00, 0x00,
   0x00, 0x00, 0x00, 0x00, 0xa0, 0x02, 0x00, 0x00, 0x00, 0x00, 0x00, 0x06,
   0x00, 0x00, 0x00, 0x00, 0x00, 0x00, 0x00, 0x00, 0x20, 0x01, 0x00, 0x00,
   0x00, 0x00, 0x00, 0x07, 0x00, 0x00, 0x00, 0x00, 0x00, 0x00, 0x00, 0x00,
   0x40, 0x01, 0x00, 0x00, 0x00, 0x00, 0x00, 0x00, 0x00, 0x00, 0x00, 0x00,
   0x00, 0x00, 0x00, 0x00, 0xc0, 0x00, 0x00, 0x00, 0x00, 0x00, 0x00, 0x00,
   0x00, 0x00, 0x00, 0x00, 0x00, 0x00, 0x00, 0x00, 0x80, 0x00, 0x00, 0x00,
   0x00, 0x00, 0x00, 0x00, 0x00, 0x00, 0x00, 0x00, 0x00, 0x00, 0x00, 0x00,
   0x00, 0x00, 0x00, 0x00, 0x00, 0x00, 0x00, 0x00, 0x00, 0x00, 0x00, 0x00,
   0x00, 0x00, 0x00, 0x00, 0x00, 0x00, 0x00, 0x00, 0x00, 0x00, 0x00, 0x00,
   0x00, 0x00, 0x00, 0x00, 0x00, 0x00, 0x00, 0x00, 0x00, 0x00, 0x00, 0x00,
   0x00, 0x00, 0x00, 0x00, 0x00, 0x00, 0x00, 0x00, 0x00, 0x00, 0x00, 0x00,
   0x00, 0x00, 0x00, 0x00, 0x00, 0x00, 0x00, 0x00, 0x00, 0x00, 0x00, 0x00,
   0x00, 0x00, 0x00, 0x00, 0x00, 0x00, 0x00, 0x00, 0x00, 0x00, 0x00, 0x00,
   0x00, 0x00, 0x00, 0x00, 0x00, 0x00, 0x00, 0x00, 0x00, 0x00, 0x00, 0x00,
   0x00, 0x00, 0x00, 0x00, 0x00, 0x00, 0x00, 0x00, 0x00, 0x00, 0x00, 0x00,
   0x00, 0x00, 0x00, 0x00 };
